<?xml version="1.0" encoding="UTF-8"?>
<svg id="Layer_3" data-name="Layer 3" xmlns="http://www.w3.org/2000/svg" width="372.4" height="359.54" viewBox="0 0 372.4 359.54">
  <path d="M369.62,27.2c-11.28,17.72-41.78,40.43-52.01,53.19-43.36,44.34-64.5,70.98-96.31,124.19-20.48,34.08-38.51,69.63-54.86,105.86-14.47,29.14-21.43,80.34-49.12,23.33-21.25-36.55-43.79-72.66-71.61-104.62-9.37-11.2-19.62-21.57-30.11-31.7-5.99-6.79-17.44-11.89-15.34-22.44,1.65-18.96,23.46-22.45,38.67-18.31,30.94,7.06,59.37,22.32,87.44,36.67,5.48-.27,15.51-17.67,20.93-22.15,14.39-16.42,29.01-32.63,43.74-48.75C213.74,100.22,319.87-17.13,362.53,2.12c9.53,4.3,12.71,16.25,7.1,25.07Z" fill="#28a03c"/>
</svg>