<?xml version="1.0" encoding="UTF-8"?>
<svg id="uVote_circle" xmlns="http://www.w3.org/2000/svg" width="533.0532" height="533.0532" viewBox="0 0 533.0532 533.0532">
  <path d="M116.5701,217.5494h56.6016v96.4229c0,21.6874-6.2607,39.3712-18.7772,53.0474-12.6095,13.6776-33.4574,20.515-62.5453,20.515-14.5012,0-26.8825-1.7585-37.1494-5.2756-10.2662-3.5171-18.6649-8.4744-25.1934-14.8732-6.5305-6.3974-11.3261-14.1162-14.3868-23.1535-3.0627-9.0353-4.593-19.1233-4.593-30.2601v-96.4229h56.6016v99.3538c0,9.6713,2.1488,16.8285,6.4484,21.4674,4.2996,4.6416,10.3907,6.9604,18.2725,6.9604s13.9709-2.2942,18.2705-6.8866c4.2996-4.5911,6.4504-11.7715,6.4504-21.5412v-99.3538Z"/>
  <g>
    <path d="M277.9392,325.6294c0-12.2866,3.9287-22.4104,11.7928-30.3738,7.8597-7.9633,18.4785-11.945,31.8521-11.945,15.2904,0,26.8445,4.6777,34.6578,14.0309,6.2789,7.5343,9.4206,16.8116,9.4206,27.8332,0,12.3869-3.8956,22.5358-11.6845,30.4478-7.7911,7.9144-18.5648,11.8692-32.3209,11.8692-12.2726,0-22.195-3.2856-29.7695-9.8592-9.299-8.1394-13.9484-18.8071-13.9484-32.0032Zm29.3362,1.0714c0,6.9863,1.3774,12.1516,4.1343,15.4956,2.757,3.3468,6.2214,5.019,10.3911,5.019,4.2184,0,7.6806-1.6484,10.3889-4.9453,2.7083-3.294,4.0636-8.5831,4.0636-15.8643,0-6.79-1.3663-11.8442-4.099-15.1649-2.7326-3.3207-6.1109-4.9816-10.1391-4.9816-4.267,0-7.7889,1.6859-10.568,5.0553-2.7813,3.3706-4.1719,8.4985-4.1719,15.3861Z" fill="#28a03c"/>
    <path d="M411.325,265.2364l.054,18.0742h16.1063v26.0411h-16.1063v27.7613c0,3.3383,.3117,5.5462,.9352,6.625,.9584,1.6697,2.6354,2.5046,5.0331,2.5046,2.1567,0,5.1768-.6375,9.0602-1.9147l2.1567,20.7296c-7.2384,1.6232-13.9982,2.4342-20.2771,2.4342-7.2871,0-12.6551-.9574-16.1063-2.8744-3.4512-1.9159-6.0036-4.8254-7.6585-8.7308-1.6537-3.9066-2.4806-10.2304-2.4806-18.9743v-27.5605h-10.7847v-26.0411h10.7847l-.0511-13.1858,29.3343-4.8884Z" fill="#28a03c"/>
    <path d="M522.5266,331.7132h-58.6734c.5273,4.8218,1.7974,8.4112,3.8116,10.7717,2.8277,3.3938,6.5177,5.0906,11.0732,5.0906,2.8752,0,5.6079-.7373,8.1968-2.213,1.5819-.9335,3.2832-2.5828,5.1049-4.9432h29.3179c-3.7796,8.0818-10.062,16.1543-16.7406,20.1034-6.1223,3.6202-14.6621,6.969-26.3112,6.969-10.1148,0-18.2884-3.7471-24.0875-6.6724-5.8002-2.9264-10.6056-7.5736-14.4171-13.9448-3.8105-6.369-5.7162-13.8569-5.7162-22.4649,0-12.2479,3.8226-22.1581,11.4689-29.734,7.6452-7.5736,18.2033-11.3621,31.6742-11.3621,10.9295,0,19.5574,1.6969,25.885,5.0918,6.3275,3.3938,11.145,8.312,14.4525,14.7558,3.3075,6.4438,4.9612,14.8296,4.9612,25.1583v3.3938Zm-29.7673-14.3805c-.5759-5.8041-2.0981-9.962-4.5666-12.4704-2.4696-2.5095-5.7162-3.7643-9.7433-3.7643-4.6495,0-8.3649,1.8946-11.145,5.6827-1.7731,2.3609-2.9007,5.879-3.3793,10.552h28.8343Z" fill="#28a03c"/>
  </g>
  <path id="checkmark" d="M378.6252,162.8962c-7.2239,11.3247-26.7495,25.8322-33.3046,33.9901-27.7641,28.334-41.2988,45.3581-61.6693,79.3539-13.1167,21.777-24.6572,44.4939-35.1296,67.6449-9.2646,18.6205-13.7243,51.3363-31.4522,14.9102-13.6086-23.355-28.0392-46.426-45.8524-66.8518-5.9989-7.1575-12.5627-13.7814-19.2813-20.2553-3.8328-4.3357-11.1641-7.5978-9.8218-14.3388,1.0587-12.1176,15.023-14.3465,24.7618-11.7013,19.8125,4.5127,38.0124,14.2595,55.9881,23.4335,3.5101-.1718,9.9318-11.2905,13.4013-14.1552,9.2125-10.494,18.5761-20.852,28.0058-31.1512,14.5393-14.2178,82.4946-89.1994,109.8103-76.8995,6.1047,2.7488,8.1404,10.3826,4.5439,16.0207Z" fill="#28a03c"/>
</svg>
